<svg width="22" height="24" viewBox="0 0 22 24" fill="none" xmlns="http://www.w3.org/2000/svg">
<path d="M20.5784 16.6967L20.1088 16.1096L19.6508 15.499L19.2047 14.8063L18.8524 14.1018L18.5823 13.3268L18.4884 12.5871V7.67906C18.4884 6.63014 18.3005 5.63209 17.9248 4.68493C17.5491 3.73777 17.0442 2.92368 16.4101 2.24266C15.7761 1.56164 15.0129 1.01761 14.1205 0.610568C13.2281 0.203522 12.281 0 11.279 0C9.96395 0 8.75455 0.344423 7.65084 1.03327C6.54712 1.72211 5.68215 2.65362 5.05592 3.82779C4.4297 5.00196 4.11659 6.28572 4.11659 7.67906V12.5871C4.11659 12.8689 4.07745 13.1546 3.99917 13.4442C3.92089 13.7339 3.77999 14.047 3.57647 14.3836C3.37295 14.7202 3.21639 14.9706 3.1068 15.135C2.99722 15.2994 2.79369 15.5773 2.49624 15.9687C2.19878 16.3601 2.02657 16.5793 1.9796 16.6262L1.5569 17.225L1.22814 17.7417L0.98156 18.2583L0.922852 18.7162L1.04027 19.2094C1.30641 19.726 1.95612 19.9843 2.98939 19.9843H7.28684C7.28684 21.0959 7.67823 22.0431 8.46101 22.8258C9.24379 23.6086 10.191 24 11.3025 24C12.414 24 13.3612 23.6086 14.144 22.8258C14.9268 22.0431 15.3182 21.0959 15.3182 19.9843H19.7095C20.7428 19.9843 21.3769 19.726 21.6117 19.2094C21.6743 19.0998 21.7095 18.9863 21.7174 18.8689C21.7252 18.7515 21.7252 18.6458 21.7174 18.5519C21.7095 18.4579 21.6743 18.3444 21.6117 18.2114C21.5491 18.0783 21.4943 17.9648 21.4473 17.8708C21.4003 17.7769 21.3182 17.6517 21.2007 17.4951C21.0833 17.3386 20.9855 17.2133 20.9072 17.1194C20.8289 17.0254 20.7193 16.8845 20.5784 16.6967ZM11.3025 22.4266C10.9737 22.4266 10.6606 22.3601 10.3632 22.227C10.0657 22.0939 9.80739 21.9217 9.58821 21.7104C9.36904 21.499 9.19291 21.2407 9.05984 20.9354C8.92677 20.6301 8.86023 20.3131 8.86023 19.9843H13.7448C13.7448 20.6575 13.506 21.2329 13.0285 21.7104C12.551 22.1879 11.9757 22.4266 11.3025 22.4266ZM19.7095 18.3875H2.70759C2.80152 18.2309 2.98939 17.9648 3.27119 17.589C3.28684 17.5577 3.4434 17.3464 3.74086 16.955C4.03831 16.5636 4.23401 16.3053 4.32794 16.18C4.42187 16.0548 4.58626 15.8004 4.82109 15.4168C5.05592 15.0333 5.21639 14.7241 5.3025 14.4892C5.3886 14.2544 5.47862 13.9569 5.57256 13.5969C5.66649 13.2368 5.71346 12.9002 5.71346 12.5871V7.67906C5.71346 5.98826 6.24966 4.55186 7.32207 3.36986C8.39448 2.18787 9.71346 1.59687 11.279 1.59687C11.733 1.59687 12.1714 1.65166 12.5941 1.76125C13.0168 1.87084 13.4121 2.02348 13.78 2.21918C14.1479 2.41487 14.4923 2.65362 14.8133 2.93542C15.1342 3.21722 15.4238 3.53425 15.6821 3.8865C15.9405 4.23875 16.1596 4.61057 16.3397 5.00196C16.5197 5.39335 16.6567 5.81605 16.7506 6.27006C16.8446 6.72407 16.8915 7.19374 16.8915 7.67906V12.5871C16.8915 13.0724 16.962 13.5616 17.1029 14.0548C17.2438 14.5479 17.4591 15.0294 17.7487 15.499C18.0383 15.9687 18.2888 16.3483 18.5002 16.638C18.7115 16.9276 18.9894 17.2838 19.3338 17.7065L19.4395 17.8474L19.5452 17.9765L19.6626 18.1174L19.7683 18.2466L19.8739 18.3875H19.7095Z" fill="white"/>
</svg>
