<svg width="22" height="22" viewBox="0 0 22 22" fill="none" xmlns="http://www.w3.org/2000/svg">
<path d="M19.8217 2.33676H14.6216V1.03673C14.6216 0.860686 14.5572 0.708339 14.4286 0.579691C14.2999 0.451043 14.1476 0.386719 13.9715 0.386719C13.7955 0.386719 13.6432 0.451043 13.5145 0.579691C13.3859 0.708339 13.3215 0.860686 13.3215 1.03673V2.33676H8.12144V1.03673C8.12144 0.860686 8.05711 0.708339 7.92846 0.579691C7.79982 0.451043 7.64747 0.386719 7.47142 0.386719C7.29538 0.386719 7.14303 0.451043 7.01438 0.579691C6.88574 0.708339 6.82141 0.860686 6.82141 1.03673V2.33676H1.62131C1.25568 2.33676 0.947603 2.46202 0.697077 2.71254C0.446552 2.96307 0.321289 3.27115 0.321289 3.63678V19.8871C0.321289 20.1173 0.378842 20.334 0.493949 20.5371C0.609055 20.7402 0.768173 20.8993 0.971301 21.0145C1.17443 21.1296 1.3911 21.1871 1.62131 21.1871H19.8217C20.1873 21.1871 20.4954 21.0585 20.7459 20.8012C20.9964 20.5439 21.1217 20.2392 21.1217 19.8871V3.63678C21.1217 3.39303 21.0641 3.17297 20.949 2.97661C20.8339 2.78025 20.6748 2.62452 20.4717 2.50941C20.2685 2.39431 20.0519 2.33676 19.8217 2.33676ZM19.8217 19.8871H1.62131V3.63678H6.82141V4.28679C6.82141 4.46284 6.88574 4.61518 7.01438 4.74383C7.14303 4.87248 7.29538 4.9368 7.47142 4.9368C7.64747 4.9368 7.79982 4.87248 7.92846 4.74383C8.05711 4.61518 8.12144 4.46284 8.12144 4.28679V3.63678H13.3215V4.28679C13.3215 4.46284 13.3859 4.61518 13.5145 4.74383C13.6432 4.87248 13.7955 4.9368 13.9715 4.9368C14.1476 4.9368 14.2999 4.87248 14.4286 4.74383C14.5572 4.61518 14.6216 4.46284 14.6216 4.28679V3.63678H19.8217V19.8871ZM15.2716 10.7869H16.5716C16.7476 10.7869 16.9 10.7226 17.0286 10.5939C17.1573 10.4653 17.2216 10.3129 17.2216 10.1369V8.83688C17.2216 8.66083 17.1573 8.50849 17.0286 8.37984C16.9 8.25119 16.7476 8.18687 16.5716 8.18687H15.2716C15.0955 8.18687 14.9432 8.25119 14.8145 8.37984C14.6859 8.50849 14.6216 8.66083 14.6216 8.83688V10.1369C14.6216 10.3129 14.6859 10.4653 14.8145 10.5939C14.9432 10.7226 15.0955 10.7869 15.2716 10.7869ZM15.2716 15.987H16.5716C16.7476 15.987 16.9 15.9227 17.0286 15.794C17.1573 15.6654 17.2216 15.513 17.2216 15.337V14.037C17.2216 13.8609 17.1573 13.7086 17.0286 13.5799C16.9 13.4513 16.7476 13.387 16.5716 13.387H15.2716C15.0955 13.387 14.9432 13.4513 14.8145 13.5799C14.6859 13.7086 14.6216 13.8609 14.6216 14.037V15.337C14.6216 15.513 14.6859 15.6654 14.8145 15.794C14.9432 15.9227 15.0955 15.987 15.2716 15.987ZM11.3715 13.387H10.0715C9.89543 13.387 9.74308 13.4513 9.61443 13.5799C9.48578 13.7086 9.42146 13.8609 9.42146 14.037V15.337C9.42146 15.4047 9.43162 15.4724 9.45193 15.5401C9.47224 15.6078 9.50271 15.6688 9.54334 15.7229C9.58396 15.7771 9.63136 15.8245 9.68553 15.8651C9.7397 15.9058 9.80063 15.9362 9.86834 15.9565C9.93605 15.9769 10.0038 15.987 10.0715 15.987H11.3715C11.5475 15.987 11.6999 15.9227 11.8285 15.794C11.9572 15.6654 12.0215 15.513 12.0215 15.337V14.037C12.0215 13.9828 12.0147 13.9253 12.0012 13.8643C11.9877 13.8034 11.9673 13.7492 11.9403 13.7018C11.9132 13.6544 11.8793 13.6104 11.8387 13.5698C11.7981 13.5292 11.7541 13.4953 11.7067 13.4682C11.6593 13.4411 11.6051 13.4208 11.5442 13.4073C11.4832 13.3937 11.4257 13.387 11.3715 13.387ZM11.3715 8.18687H10.0715C9.89543 8.18687 9.74308 8.25119 9.61443 8.37984C9.48578 8.50849 9.42146 8.66083 9.42146 8.83688V10.1369C9.42146 10.3129 9.48578 10.4653 9.61443 10.5939C9.74308 10.7226 9.89543 10.7869 10.0715 10.7869H11.3715C11.5475 10.7869 11.6999 10.7226 11.8285 10.5939C11.9572 10.4653 12.0215 10.3129 12.0215 10.1369V8.83688C12.0215 8.74208 12.0046 8.65745 11.9707 8.58297C11.9369 8.50849 11.8895 8.44078 11.8285 8.37984C11.7676 8.3189 11.6999 8.2715 11.6254 8.23765C11.5509 8.20379 11.4663 8.18687 11.3715 8.18687ZM6.1714 8.18687H4.87138C4.69533 8.18687 4.54298 8.25119 4.41433 8.37984C4.28569 8.50849 4.22136 8.66083 4.22136 8.83688V10.1369C4.22136 10.3129 4.28569 10.4653 4.41433 10.5939C4.54298 10.7226 4.69533 10.7869 4.87138 10.7869H6.1714C6.34744 10.7869 6.49979 10.7226 6.62844 10.5939C6.75709 10.4653 6.82141 10.3129 6.82141 10.1369V8.83688C6.82141 8.74208 6.80448 8.65745 6.77063 8.58297C6.73677 8.50849 6.68938 8.44078 6.62844 8.37984C6.5675 8.3189 6.49979 8.2715 6.42531 8.23765C6.35083 8.20379 6.26619 8.18687 6.1714 8.18687ZM6.1714 13.387H4.87138C4.69533 13.387 4.54298 13.4513 4.41433 13.5799C4.28569 13.7086 4.22136 13.8609 4.22136 14.037V15.337C4.22136 15.513 4.28569 15.6654 4.41433 15.794C4.54298 15.9227 4.69533 15.987 4.87138 15.987H6.1714C6.34744 15.987 6.49979 15.9227 6.62844 15.794C6.75709 15.6654 6.82141 15.513 6.82141 15.337V14.037C6.82141 13.9828 6.81464 13.9253 6.8011 13.8643C6.78756 13.8034 6.76724 13.7492 6.74016 13.7018C6.71308 13.6544 6.67922 13.6104 6.6386 13.5698C6.59797 13.5292 6.55396 13.4953 6.50656 13.4682C6.45917 13.4411 6.405 13.4208 6.34406 13.4073C6.28312 13.3937 6.22557 13.387 6.1714 13.387Z" fill="white"/>
</svg>
