<svg width="21" height="20" viewBox="0 0 21 20" fill="none" xmlns="http://www.w3.org/2000/svg">
<path d="M3.58201 18.8884L3.10329 18.3067C2.86445 18.5175 2.77478 18.8568 2.87834 19.158C2.98191 19.4591 3.25694 19.6588 3.56827 19.6588L3.58201 18.8884ZM4.45504 17.7396L3.75368 17.4901L3.75368 17.4901L4.45504 17.7396ZM5.61926 16.0465C5.68371 15.6251 5.40601 15.2359 4.999 15.1771C4.59199 15.1183 4.20978 15.4122 4.14533 15.8336L5.61926 16.0465ZM8.79104 17.6945C9.08193 17.3877 9.08111 16.9 8.78922 16.6053C8.49733 16.3106 8.0249 16.3204 7.73401 16.6273L8.79104 17.6945ZM6.61551 18.4362L6.28881 17.75L6.61551 18.4362ZM3.58201 18.8884C4.06073 19.4701 4.06082 19.47 4.06091 19.4699C4.06095 19.4699 4.06104 19.4698 4.06111 19.4698C4.06125 19.4696 4.0614 19.4695 4.06156 19.4694C4.06188 19.4691 4.06225 19.4688 4.06265 19.4684C4.06346 19.4677 4.06444 19.4668 4.06558 19.4658C4.06786 19.4638 4.07079 19.4611 4.07433 19.458C4.08142 19.4516 4.09099 19.4429 4.10273 19.4321C4.12619 19.4104 4.15852 19.3801 4.19733 19.3425C4.27446 19.2676 4.37961 19.1612 4.49251 19.0341C4.69912 18.8015 5.00663 18.4178 5.1564 17.9891L3.75368 17.4901C3.71234 17.6085 3.58333 17.7991 3.40121 18.0042C3.31974 18.0959 3.24246 18.1741 3.18576 18.2292C3.15765 18.2565 3.13522 18.2775 3.12064 18.2909C3.11336 18.2976 3.10809 18.3024 3.1051 18.3051C3.1036 18.3064 3.10268 18.3072 3.10236 18.3075C3.10221 18.3077 3.1022 18.3077 3.10236 18.3075C3.10243 18.3075 3.10255 18.3074 3.1027 18.3072C3.10278 18.3072 3.10287 18.3071 3.10297 18.307C3.10302 18.307 3.1031 18.3069 3.10312 18.3069C3.10321 18.3068 3.10329 18.3067 3.58201 18.8884ZM5.1564 17.9891C5.30877 17.553 5.42396 17.0631 5.49964 16.6971C5.53812 16.511 5.5677 16.3504 5.58775 16.2357C5.5978 16.1783 5.60549 16.1322 5.61076 16.0998C5.6134 16.0836 5.61543 16.0709 5.61685 16.0619C5.61756 16.0574 5.61812 16.0539 5.61852 16.0513C5.61872 16.05 5.61888 16.0489 5.619 16.0481C5.61907 16.0477 5.61912 16.0474 5.61916 16.0471C5.61918 16.047 5.6192 16.0469 5.61922 16.0468C5.61922 16.0467 5.61923 16.0466 5.61924 16.0466C5.61925 16.0466 5.61926 16.0465 4.88229 15.94C4.14533 15.8336 4.14534 15.8335 4.14534 15.8335C4.14535 15.8335 4.14535 15.8334 4.14536 15.8334C4.14536 15.8334 4.14537 15.8333 4.14537 15.8333C4.14537 15.8333 4.14537 15.8333 4.14535 15.8334C4.14532 15.8336 4.14526 15.834 4.14515 15.8347C4.14494 15.8361 4.14458 15.8384 4.14408 15.8416C4.14307 15.848 4.14146 15.858 4.13928 15.8714C4.13492 15.8982 4.12824 15.9382 4.11935 15.9891C4.10154 16.0909 4.075 16.2351 4.04046 16.4021C3.9701 16.7424 3.87166 17.1524 3.75368 17.4901L5.1564 17.9891ZM8.26253 17.1609C7.73401 16.6273 7.73408 16.6272 7.73415 16.6271C7.73417 16.6271 7.73423 16.627 7.73427 16.627C7.73435 16.6269 7.73441 16.6268 7.73446 16.6268C7.73456 16.6267 7.73462 16.6266 7.73463 16.6266C7.73465 16.6266 7.73449 16.6268 7.73415 16.6271C7.73346 16.6278 7.73205 16.6293 7.72994 16.6315C7.72572 16.6359 7.7187 16.6431 7.70904 16.6529C7.68971 16.6725 7.65994 16.7024 7.62105 16.7402C7.54305 16.8159 7.42959 16.9225 7.29123 17.0421C7.00847 17.2866 6.64782 17.5627 6.28881 17.75L6.94221 19.1225C7.44988 18.8576 7.91274 18.496 8.23681 18.2159C8.40188 18.0732 8.53767 17.9457 8.63307 17.853C8.68088 17.8066 8.71883 17.7686 8.74557 17.7414C8.75894 17.7278 8.76953 17.7169 8.77716 17.709C8.78098 17.7051 8.78405 17.7019 8.78637 17.6994C8.78753 17.6982 8.78851 17.6972 8.78928 17.6964C8.78967 17.696 8.79001 17.6956 8.79031 17.6953C8.79045 17.6952 8.79059 17.695 8.79071 17.6949C8.79077 17.6948 8.79085 17.6947 8.79088 17.6947C8.79096 17.6946 8.79104 17.6945 8.26253 17.1609ZM6.28881 17.75C6.16783 17.8131 5.95266 17.8816 5.65005 17.9408C5.35941 17.9977 5.03501 18.0373 4.72475 18.0643C4.41621 18.0911 4.13188 18.1046 3.92429 18.1114C3.82081 18.1147 3.73718 18.1164 3.68008 18.1172C3.65154 18.1177 3.62968 18.1179 3.61534 18.118C3.60817 18.118 3.60288 18.118 3.59958 18.118C3.59793 18.118 3.59677 18.118 3.59613 18.1181C3.59581 18.1181 3.59562 18.1181 3.59555 18.1181C3.59552 18.1181 3.59552 18.1181 3.59556 18.1181C3.59557 18.1181 3.59562 18.1181 3.59563 18.1181C3.59569 18.1181 3.59575 18.1181 3.58201 18.8884C3.56827 19.6588 3.56835 19.6588 3.56844 19.6588C3.56848 19.6588 3.56858 19.6588 3.56866 19.6588C3.56883 19.6588 3.56902 19.6588 3.56925 19.6588C3.56972 19.6588 3.57031 19.6588 3.57103 19.6588C3.57248 19.6588 3.57445 19.6587 3.57692 19.6587C3.58188 19.6587 3.58886 19.6587 3.59777 19.6586C3.61559 19.6585 3.64113 19.6583 3.67354 19.6578C3.73831 19.6569 3.83074 19.655 3.94394 19.6513C4.16972 19.6439 4.48125 19.6292 4.82275 19.5995C5.16254 19.57 5.54234 19.5248 5.90174 19.4544C6.24915 19.3865 6.62984 19.2855 6.94221 19.1225L6.28881 17.75Z" fill="white"/>
<path fill-rule="evenodd" clip-rule="evenodd" d="M19.4058 9.22916C19.4058 12.8782 15.7125 16.3039 10.5223 16.3039C9.12606 16.3039 7.83819 16.056 6.7014 15.6226C7.21865 15.9416 7.75663 16.1748 8.34979 16.1748C8.9996 16.1748 8.9996 16.1748 8.78301 16.3443C8.56637 16.5139 8.13306 16.853 7.91655 17.5313C7.91481 17.5368 7.91302 17.5422 7.91119 17.5476C8.74554 17.7258 9.6205 17.8206 10.5223 17.8206C16.2661 17.8206 20.9225 13.9741 20.9225 9.22916C20.9225 4.48423 16.2661 0.637695 10.5223 0.637695C4.7784 0.637695 0.12207 4.48423 0.12207 9.22916C0.12207 12.2385 1.99496 14.8864 4.83035 16.4209C4.84198 16.3413 4.85932 16.2592 4.88281 16.1748C5.05855 15.5429 5.12801 15.1278 5.1394 14.8561C2.96279 13.5188 1.63877 11.414 1.63877 9.22916C1.63877 5.58014 5.33202 2.15439 10.5223 2.15439C15.7125 2.15439 19.4058 5.58014 19.4058 9.22916Z" fill="white"/>
</svg>
