<svg width="21" height="20" viewBox="0 0 21 20" fill="none" xmlns="http://www.w3.org/2000/svg">
<rect x="1.31641" y="0.5" width="19" height="19" rx="4.5" stroke="black"/>
<path d="M16.4081 6.00822C16.3306 5.93011 16.2385 5.86811 16.1369 5.82581C16.0354 5.7835 15.9265 5.76172 15.8164 5.76172C15.7064 5.76172 15.5975 5.7835 15.496 5.82581C15.3944 5.86811 15.3022 5.93011 15.2248 6.00822L9.01645 12.2249L6.40811 9.60822C6.32768 9.53052 6.23273 9.46942 6.12868 9.42842C6.02463 9.38742 5.91353 9.36731 5.80171 9.36924C5.6899 9.37118 5.57956 9.39512 5.47699 9.4397C5.37443 9.48427 5.28164 9.54862 5.20395 9.62905C5.12625 9.70949 5.06515 9.80444 5.02415 9.90848C4.98315 10.0125 4.96304 10.1236 4.96497 10.2354C4.96691 10.3473 4.99085 10.4576 5.03542 10.5602C5.08 10.6627 5.14434 10.7555 5.22478 10.8332L8.42478 14.0332C8.50225 14.1113 8.59442 14.1733 8.69596 14.2156C8.79751 14.2579 8.90644 14.2797 9.01645 14.2797C9.12646 14.2797 9.23538 14.2579 9.33693 14.2156C9.43848 14.1733 9.53064 14.1113 9.60811 14.0332L16.4081 7.23322C16.4927 7.15518 16.5602 7.06047 16.6064 6.95506C16.6525 6.84964 16.6764 6.7358 16.6764 6.62072C16.6764 6.50563 16.6525 6.3918 16.6064 6.28638C16.5602 6.18096 16.4927 6.08625 16.4081 6.00822Z" fill="#040012"/>
</svg>
