<svg width="25" height="25" viewBox="0 0 25 25" fill="none" xmlns="http://www.w3.org/2000/svg">
<path fill-rule="evenodd" clip-rule="evenodd" d="M15.4896 0.976311C16.7914 -0.325437 18.9019 -0.325437 20.2037 0.976311L23.0991 3.87174C24.4008 5.17349 24.4008 7.28404 23.0991 8.58578L10.9847 20.7002L10.8734 20.8115L10.7241 20.8612L1.23009 24.0259C0.500451 24.2691 -0.193704 23.575 0.0495094 22.8453L3.21419 13.3513L3.26396 13.202L3.37524 13.0907L15.4896 0.976311ZM19.2609 1.91912C18.4798 1.13807 17.2135 1.13807 16.4324 1.91912L14.7895 3.56205L20.5134 9.28591L22.1563 7.64298C22.9373 6.86193 22.9373 5.5956 22.1563 4.81455L19.2609 1.91912ZM4.7895 13.562L13.8467 4.50486L19.5706 10.2287L10.5134 19.2859L4.7895 13.562ZM4.13801 14.7962L1.5674 22.508L9.27923 19.9374L4.13801 14.7962Z" fill="#040012"/>
</svg>
