<svg width="25" height="25" viewBox="0 0 25 25" fill="none" xmlns="http://www.w3.org/2000/svg">
<g clip-path="url(#clip0)">
<mask id="path-1-inside-1" fill="white">
<path fill-rule="evenodd" clip-rule="evenodd" d="M18.8213 9.49023C18.8213 10.3219 18.4467 11.5981 17.7146 13.1751C17.0045 14.7048 16.0386 16.3502 15.0392 17.8603C14.0403 19.3696 13.0317 20.7081 12.2528 21.6239C12.126 21.7731 12.0083 21.9074 11.9005 22.0267C10.4683 20.6266 8.85783 18.6749 7.52584 16.5728C5.87662 13.97 4.82129 11.3969 4.82129 9.49023C4.82129 5.62424 7.9553 2.49023 11.8213 2.49023C15.6873 2.49023 18.8213 5.62424 18.8213 9.49023ZM20.3213 9.49023C20.3213 14.1847 12.4046 24.4902 11.8213 23.9902C8.32129 20.9902 3.32129 14.1847 3.32129 9.49023C3.32129 4.79581 7.12687 0.990234 11.8213 0.990234C16.5157 0.990234 20.3213 4.79581 20.3213 9.49023ZM14.8213 9.49023C14.8213 11.1471 13.4781 12.4902 11.8213 12.4902C10.1644 12.4902 8.82129 11.1471 8.82129 9.49023C8.82129 7.83338 10.1644 6.49023 11.8213 6.49023C13.4781 6.49023 14.8213 7.83338 14.8213 9.49023ZM16.3213 9.49023C16.3213 11.9755 14.3066 13.9902 11.8213 13.9902C9.33601 13.9902 7.32129 11.9755 7.32129 9.49023C7.32129 7.00495 9.33601 4.99023 11.8213 4.99023C14.3066 4.99023 16.3213 7.00495 16.3213 9.49023Z"/>
</mask>
<path fill-rule="evenodd" clip-rule="evenodd" d="M18.8213 9.49023C18.8213 10.3219 18.4467 11.5981 17.7146 13.1751C17.0045 14.7048 16.0386 16.3502 15.0392 17.8603C14.0403 19.3696 13.0317 20.7081 12.2528 21.6239C12.126 21.7731 12.0083 21.9074 11.9005 22.0267C10.4683 20.6266 8.85783 18.6749 7.52584 16.5728C5.87662 13.97 4.82129 11.3969 4.82129 9.49023C4.82129 5.62424 7.9553 2.49023 11.8213 2.49023C15.6873 2.49023 18.8213 5.62424 18.8213 9.49023ZM20.3213 9.49023C20.3213 14.1847 12.4046 24.4902 11.8213 23.9902C8.32129 20.9902 3.32129 14.1847 3.32129 9.49023C3.32129 4.79581 7.12687 0.990234 11.8213 0.990234C16.5157 0.990234 20.3213 4.79581 20.3213 9.49023ZM14.8213 9.49023C14.8213 11.1471 13.4781 12.4902 11.8213 12.4902C10.1644 12.4902 8.82129 11.1471 8.82129 9.49023C8.82129 7.83338 10.1644 6.49023 11.8213 6.49023C13.4781 6.49023 14.8213 7.83338 14.8213 9.49023ZM16.3213 9.49023C16.3213 11.9755 14.3066 13.9902 11.8213 13.9902C9.33601 13.9902 7.32129 11.9755 7.32129 9.49023C7.32129 7.00495 9.33601 4.99023 11.8213 4.99023C14.3066 4.99023 16.3213 7.00495 16.3213 9.49023Z" fill="#040012"/>
<path d="M17.7146 13.1751L16.8076 12.754V12.754L17.7146 13.1751ZM15.0392 17.8603L15.8731 18.4122H15.8731L15.0392 17.8603ZM12.2528 21.6239L11.4911 20.9761L11.4911 20.9761L12.2528 21.6239ZM11.9005 22.0267L11.2015 22.7418L11.9455 23.4691L12.6427 22.6969L11.9005 22.0267ZM7.52584 16.5728L6.68114 17.108L7.52584 16.5728ZM11.8213 23.9902L12.4721 23.231L11.8213 23.9902ZM18.6217 13.5961C19.3662 11.9922 19.8213 10.5503 19.8213 9.49023H17.8213C17.8213 10.0934 17.5272 11.2039 16.8076 12.754L18.6217 13.5961ZM15.8731 18.4122C16.8902 16.8753 17.8841 15.185 18.6217 13.5961L16.8076 12.754C16.1249 14.2246 15.187 15.8251 14.2053 17.3084L15.8731 18.4122ZM13.0146 22.2718C13.8237 21.3204 14.8561 19.9488 15.8731 18.4122L14.2053 17.3084C13.2245 18.7903 12.2397 20.0958 11.4911 20.9761L13.0146 22.2718ZM12.6427 22.6969C12.7578 22.5695 12.882 22.4277 13.0146 22.2718L11.4911 20.9761C11.3699 21.1185 11.2588 21.2453 11.1584 21.3565L12.6427 22.6969ZM6.68114 17.108C8.0538 19.2743 9.71291 21.2866 11.2015 22.7418L12.5996 21.3116C11.2237 19.9667 9.66186 18.0755 8.37055 16.0376L6.68114 17.108ZM3.82129 9.49023C3.82129 11.6908 5.0066 14.4653 6.68114 17.108L8.37055 16.0376C6.74664 13.4747 5.82129 11.1029 5.82129 9.49023H3.82129ZM11.8213 1.49023C7.40301 1.49023 3.82129 5.07196 3.82129 9.49023H5.82129C5.82129 6.17653 8.50758 3.49023 11.8213 3.49023V1.49023ZM19.8213 9.49023C19.8213 5.07196 16.2396 1.49023 11.8213 1.49023V3.49023C15.135 3.49023 17.8213 6.17653 17.8213 9.49023H19.8213ZM11.1705 24.7495C11.4867 25.0205 11.8463 25.0258 12.0503 24.9941C12.2451 24.9639 12.4002 24.8893 12.4921 24.839C12.6833 24.7347 12.8658 24.5869 13.02 24.4492C13.3426 24.1613 13.734 23.7413 14.1573 23.2435C15.0117 22.2388 16.0798 20.8178 17.124 19.24C18.1677 17.6629 19.2035 15.9053 19.9822 14.2277C20.7464 12.5815 21.3213 10.8918 21.3213 9.49023H19.3213C19.3213 10.4359 18.9066 11.7948 18.1682 13.3856C17.4443 14.9449 16.4644 16.6127 15.4561 18.1362C14.4482 19.6592 13.4277 21.0142 12.6337 21.9479C12.2328 22.4193 11.91 22.7591 11.688 22.9573C11.5699 23.0628 11.5225 23.0898 11.5336 23.0837C11.5356 23.0826 11.6131 23.038 11.7437 23.0178C11.8835 22.9961 12.1923 22.9912 12.4721 23.231L11.1705 24.7495ZM2.32129 9.49023C2.32129 12.1312 3.70107 15.2074 5.41409 17.9109C7.14715 20.646 9.33503 23.1762 11.1705 24.7495L12.4721 23.231C10.8075 21.8042 8.74543 19.4317 7.10349 16.8404C5.44151 14.2175 4.32129 11.5437 4.32129 9.49023H2.32129ZM11.8213 -0.00976562C6.57458 -0.00976562 2.32129 4.24353 2.32129 9.49023H4.32129C4.32129 5.3481 7.67915 1.99023 11.8213 1.99023V-0.00976562ZM21.3213 9.49023C21.3213 4.24353 17.068 -0.00976562 11.8213 -0.00976562V1.99023C15.9634 1.99023 19.3213 5.3481 19.3213 9.49023H21.3213ZM11.8213 13.4902C14.0304 13.4902 15.8213 11.6994 15.8213 9.49023H13.8213C13.8213 10.5948 12.9259 11.4902 11.8213 11.4902V13.4902ZM7.82129 9.49023C7.82129 11.6994 9.61215 13.4902 11.8213 13.4902V11.4902C10.7167 11.4902 9.82129 10.5948 9.82129 9.49023H7.82129ZM11.8213 5.49023C9.61215 5.49023 7.82129 7.2811 7.82129 9.49023H9.82129C9.82129 8.38566 10.7167 7.49023 11.8213 7.49023V5.49023ZM15.8213 9.49023C15.8213 7.2811 14.0304 5.49023 11.8213 5.49023V7.49023C12.9259 7.49023 13.8213 8.38566 13.8213 9.49023H15.8213ZM11.8213 14.9902C14.8589 14.9902 17.3213 12.5278 17.3213 9.49023H15.3213C15.3213 11.4232 13.7543 12.9902 11.8213 12.9902V14.9902ZM6.32129 9.49023C6.32129 12.5278 8.78372 14.9902 11.8213 14.9902V12.9902C9.88829 12.9902 8.32129 11.4232 8.32129 9.49023H6.32129ZM11.8213 3.99023C8.78372 3.99023 6.32129 6.45267 6.32129 9.49023H8.32129C8.32129 7.55724 9.88829 5.99023 11.8213 5.99023V3.99023ZM17.3213 9.49023C17.3213 6.45267 14.8589 3.99023 11.8213 3.99023V5.99023C13.7543 5.99023 15.3213 7.55724 15.3213 9.49023H17.3213Z" fill="black" mask="url(#path-1-inside-1)"/>
</g>
<defs>
<clipPath id="clip0">
<rect width="24" height="24" fill="white" transform="translate(0.321289 0.990234)"/>
</clipPath>
</defs>
</svg>
