<svg width="25" height="25" viewBox="0 0 25 25" fill="none" xmlns="http://www.w3.org/2000/svg">
<path fill-rule="evenodd" clip-rule="evenodd" d="M22.1587 0.569514C21.3994 -0.189839 20.1682 -0.189837 19.4089 0.569515L12.3422 7.63624L12.2773 7.70115L12.2482 7.78825L10.4022 13.3264C10.2603 13.7521 10.6652 14.157 11.0908 14.0151L16.629 12.169L16.7161 12.14L16.781 12.0751L23.8477 5.00838C24.6071 4.24902 24.6071 3.01787 23.8477 2.25852L22.1587 0.569514ZM19.9589 1.11949C20.4145 0.663875 21.1532 0.663875 21.6088 1.11949L23.2978 2.80849C23.7534 3.2641 23.7534 4.00279 23.2978 4.4584L22.3394 5.41678L19.0005 2.07786L19.9589 1.11949ZM18.4505 2.62783L13.1672 7.9112L16.5061 11.2501L21.7894 5.96675L18.4505 2.62783ZM11.2876 13.1297L12.7871 8.6311L15.7862 11.6301L11.2876 13.1297ZM2 2.99995H13.5391V3.99995H2C1.44771 3.99995 1 4.44767 1 4.99995V21.8695C1 22.4218 1.44771 22.8695 2 22.8695H18.8299C19.3822 22.8695 19.8299 22.4218 19.8299 21.8695V10.3043H20.8299V21.8695C20.8299 22.9741 19.9345 23.8695 18.8299 23.8695H2C0.89543 23.8695 0 22.9741 0 21.8695V4.99995C0 3.89538 0.895431 2.99995 2 2.99995Z" fill="#040012"/>
</svg>
