<svg width="21" height="20" viewBox="0 0 21 20" fill="none" xmlns="http://www.w3.org/2000/svg">
<path d="M19.1166 7.31818L5.00366 0.318175C4.44669 0.0431843 3.81779 -0.0547143 3.20269 0.0378269C2.58758 0.130368 2.01622 0.408845 1.56649 0.835291C1.11677 1.26174 0.810568 1.8154 0.68964 2.42079C0.568713 3.02617 0.638943 3.65383 0.890756 4.21818L3.31011 9.58818C3.36501 9.71801 3.39328 9.85739 3.39328 9.99818C3.39328 10.139 3.36501 10.2783 3.31011 10.4082L0.890756 15.7782C0.685817 16.2349 0.599179 16.7352 0.638717 17.2335C0.678255 17.7319 0.842714 18.2126 1.11715 18.6319C1.39158 19.0512 1.76729 19.3958 2.21013 19.6344C2.65297 19.873 3.1489 19.9981 3.65285 19.9982C4.12486 19.9935 4.58984 19.8842 5.01374 19.6782L19.1266 12.6782C19.6272 12.4284 20.048 12.0455 20.3421 11.5723C20.6361 11.099 20.7918 10.5541 20.7918 9.99818C20.7918 9.44228 20.6361 8.89732 20.3421 8.4241C20.048 7.95087 19.6272 7.56799 19.1266 7.31818H19.1166ZM18.2194 10.8882L4.10648 17.8882C3.92116 17.9764 3.71307 18.0064 3.5101 17.974C3.30713 17.9416 3.11899 17.8485 2.97091 17.707C2.82283 17.5656 2.72189 17.3826 2.68161 17.1826C2.64134 16.9826 2.66367 16.7752 2.74559 16.5882L5.15487 11.2182C5.18606 11.1465 5.21299 11.073 5.23551 10.9982H12.1811C12.4484 10.9982 12.7048 10.8928 12.8939 10.7053C13.0829 10.5177 13.1891 10.2634 13.1891 9.99818C13.1891 9.73296 13.0829 9.47861 12.8939 9.29107C12.7048 9.10353 12.4484 8.99818 12.1811 8.99818H5.23551C5.21299 8.92334 5.18606 8.84988 5.15487 8.77818L2.74559 3.40818C2.66367 3.22114 2.64134 3.01372 2.68161 2.81374C2.72189 2.61376 2.82283 2.43078 2.97091 2.28932C3.11899 2.14787 3.30713 2.05471 3.5101 2.02233C3.71307 1.98995 3.92116 2.0199 4.10648 2.10818L18.2194 9.10818C18.3845 9.19209 18.5231 9.31959 18.6198 9.47662C18.7166 9.63365 18.7678 9.81413 18.7678 9.99818C18.7678 10.1822 18.7166 10.3627 18.6198 10.5197C18.5231 10.6768 18.3845 10.8043 18.2194 10.8882Z" fill="white"/>
</svg>
