<svg width="19" height="20" viewBox="0 0 19 20" fill="none" xmlns="http://www.w3.org/2000/svg">
<path fill-rule="evenodd" clip-rule="evenodd" d="M11.3213 1.2832H7.32129C6.769 1.2832 6.32129 1.73092 6.32129 2.2832V3.2832H12.3213V2.2832C12.3213 1.73092 11.8736 1.2832 11.3213 1.2832ZM5.32129 2.2832V3.2832H0.821289C0.545147 3.2832 0.321289 3.50706 0.321289 3.7832C0.321289 4.05935 0.545147 4.2832 0.821289 4.2832H2.32129V4.61084V17.6108C2.32129 18.7154 3.21672 19.6108 4.32129 19.6108H14.3213C15.4259 19.6108 16.3213 18.7154 16.3213 17.6108V4.61084V4.2832H17.8213C18.0974 4.2832 18.3213 4.05935 18.3213 3.7832C18.3213 3.50706 18.0974 3.2832 17.8213 3.2832H13.3213V2.2832C13.3213 1.17863 12.4259 0.283203 11.3213 0.283203H7.32129C6.21672 0.283203 5.32129 1.17863 5.32129 2.2832ZM3.32129 4.61084H15.3213V17.6108C15.3213 18.1631 14.8736 18.6108 14.3213 18.6108H4.32129C3.769 18.6108 3.32129 18.1631 3.32129 17.6108V4.61084ZM6 8.11084C6 7.8347 6.22386 7.61084 6.5 7.61084C6.77614 7.61084 7 7.8347 7 8.11084V15.1108C7 15.387 6.77614 15.6108 6.5 15.6108C6.22386 15.6108 6 15.387 6 15.1108V8.11084ZM11.5 7.61084C11.2239 7.61084 11 7.8347 11 8.11084V15.1108C11 15.387 11.2239 15.6108 11.5 15.6108C11.7761 15.6108 12 15.387 12 15.1108V8.11084C12 7.8347 11.7761 7.61084 11.5 7.61084Z" fill="#040012"/>
</svg>
