<svg width="61" height="60" viewBox="0 0 61 60" fill="none" xmlns="http://www.w3.org/2000/svg">
<g clip-path="url(#clip0)">
<circle cx="30.8154" cy="30" r="30" fill="#B1B1B1"/>
<path fill-rule="evenodd" clip-rule="evenodd" d="M12.9357 54.0921C12.8563 53.4057 12.8154 52.7076 12.8154 52C12.8154 42.0589 20.8743 34 30.8154 34C40.7566 34 48.8154 42.0589 48.8154 52C48.8154 52.7076 48.7746 53.4057 48.6952 54.0921C43.702 57.8038 37.5152 60 30.8154 60C24.1157 60 17.9289 57.8038 12.9357 54.0921ZM30.8154 34C24.188 34 18.8154 28.6274 18.8154 22C18.8154 15.3726 24.188 10 30.8154 10C37.4428 10 42.8154 15.3726 42.8154 22C42.8154 28.6274 37.4428 34 30.8154 34Z" fill="white"/>
</g>
<defs>
<clipPath id="clip0">
<rect width="60" height="60" fill="white" transform="translate(0.81543)"/>
</clipPath>
</defs>
</svg>
